<?xml version="1.0" standalone="no"?>
<!DOCTYPE svg PUBLIC "-//W3C//DTD SVG 20010904//EN"
 "http://www.w3.org/TR/2001/REC-SVG-20010904/DTD/svg10.dtd">
<svg version="1.0" xmlns="http://www.w3.org/2000/svg"
 width="128.000000pt" height="128.000000pt" viewBox="0 0 128.000000 128.000000"
 preserveAspectRatio="xMidYMid meet">
<metadata>
Created by potrace 1.11, written by Peter Selinger 2001-2013
</metadata>
<g transform="translate(0.000000,128.000000) scale(0.100000,-0.100000)"
fill="#000000" stroke="none">
<path d="M790 1251 c-89 -37 -137 -69 -193 -130 -43 -46 -97 -138 -97 -167 0
-6 21 -19 46 -29 26 -10 64 -35 86 -57 22 -22 41 -38 42 -36 1 1 12 37 25 78
25 80 66 166 85 177 8 5 8 3 0 -8 -12 -14 -31 -68 -40 -110 -15 -74 -22 -114
-19 -117 1 -2 9 3 17 11 35 35 104 60 178 65 41 3 78 9 81 14 10 15 -10 119
-33 178 -30 75 -86 161 -104 159 -5 0 -38 -13 -74 -28z"/>
<path d="M261 914 c-72 -19 -72 -20 -66 -67 19 -155 92 -268 189 -293 30 -7
33 -30 12 -72 -21 -42 -28 -72 -17 -72 5 0 13 9 16 21 l7 21 19 -21 c20 -22
31 -25 42 -15 3 4 -3 14 -15 23 l-20 17 26 17 c28 19 35 47 11 47 -8 0 -12 -6
-10 -13 5 -11 -32 -43 -41 -35 -2 2 4 20 14 38 13 27 25 36 52 41 19 3 52 13
72 23 l38 18 -29 37 c-32 40 -130 134 -176 169 l-30 23 40 -20 c47 -22 168
-108 207 -145 l27 -26 12 21 c49 92 1 197 -111 247 -67 29 -188 37 -269 16z"/>
<path d="M908 895 c-1 -2 -20 -6 -41 -9 -76 -12 -147 -76 -162 -146 -8 -37 -9
-89 -2 -96 3 -3 29 6 58 19 89 41 317 104 297 83 -3 -4 -14 -9 -25 -11 -10 -2
-18 -4 -18 -5 0 -1 -7 -3 -15 -5 -58 -12 -260 -122 -260 -141 0 -19 82 -82
128 -98 55 -20 137 -14 190 13 60 31 151 127 189 202 30 57 31 64 17 80 -20
22 -116 73 -177 93 -43 15 -170 30 -179 21z"/>
<path d="M50 558 c-24 -23 -26 -50 -4 -83 9 -13 14 -32 12 -41 -3 -16 -4 -16
-21 0 -20 20 -33 15 -24 -9 7 -18 38 -20 55 -3 17 17 15 41 -5 76 -14 25 -15
32 -4 46 7 9 22 16 32 16 16 0 17 -4 8 -26 -12 -33 -2 -46 16 -21 32 43 -24
83 -65 45z"/>
<path d="M144 512 c2 -4 -2 -22 -11 -40 -26 -54 -2 -81 37 -40 37 40 16 -16
-24 -62 l-21 -24 25 15 c27 16 92 137 83 153 -4 5 -14 0 -22 -13 -55 -77 -87
-97 -55 -33 15 31 12 52 -7 52 -6 0 -8 -4 -5 -8z"/>
<path d="M258 468 c-10 -29 -15 -54 -11 -57 3 -4 8 0 10 7 3 7 15 25 28 40 19
23 21 30 10 45 -7 9 -14 17 -16 17 -2 0 -12 -24 -21 -52z"/>
<path d="M323 513 c-7 -2 -13 -9 -13 -14 0 -6 5 -7 12 -3 8 5 9 2 5 -10 -16
-40 -18 -64 -7 -71 6 -4 16 -3 22 3 6 6 6 12 -1 16 -8 5 -6 16 4 37 21 39 11
56 -22 42z"/>
<path d="M517 494 c-50 -50 -7 -112 49 -69 18 14 17 15 -8 5 -19 -6 -29 -6
-34 2 -7 11 13 28 33 28 15 0 32 31 26 48 -8 20 -39 14 -66 -14z m53 2 c0 -3
-7 -12 -16 -20 -19 -20 -40 -11 -23 10 10 13 39 20 39 10z"/>
<path d="M620 491 c0 -17 -4 -33 -10 -36 -5 -3 -10 -15 -10 -26 0 -12 4 -17
11 -14 11 8 33 55 31 68 -2 7 13 11 36 8 6 -1 12 5 12 14 0 18 -11 20 -27 4
-8 -8 -13 -8 -17 0 -13 20 -26 11 -26 -18z"/>
<path d="M909 450 c-5 -4 -6 -15 -2 -26 6 -17 5 -17 -10 -5 -9 7 -14 18 -10
24 3 6 1 7 -6 3 -9 -6 -9 -11 1 -24 11 -13 10 -15 -4 -9 -10 3 -20 1 -24 -5
-5 -7 -2 -8 6 -3 9 5 11 4 6 -4 -13 -21 -27 -1 -14 22 10 19 9 20 -4 10 -8 -7
-17 -10 -21 -7 -3 3 -3 -3 0 -15 3 -13 1 -21 -6 -21 -7 0 -9 5 -6 10 4 6 -5 5
-20 -2 -18 -8 -22 -14 -13 -20 13 -7 11 -9 -14 -12 -13 -1 -24 -26 -11 -26 5
0 14 5 21 12 9 9 12 9 12 1 0 -7 -5 -15 -10 -18 -6 -4 -8 -11 -4 -16 3 -6 12
-5 22 3 13 11 15 10 9 -5 -4 -11 -3 -16 3 -12 6 3 10 0 10 -7 0 -9 3 -9 10 2
9 13 14 7 11 -12 0 -4 7 -4 16 -1 11 4 14 3 9 -5 -5 -8 -1 -10 10 -5 13 5 15
3 9 -8 -7 -12 -6 -12 7 -1 14 11 19 10 33 -12 10 -14 21 -24 25 -21 5 3 12 0
15 -6 4 -5 13 -8 21 -5 8 3 14 0 14 -7 0 -8 4 -6 10 3 9 13 14 8 11 -12 0 -4
9 -5 21 -3 12 3 26 -1 30 -8 6 -9 8 -8 8 3 1 9 6 5 15 -10 20 -34 19 -46 -2
-28 -10 8 -30 14 -45 13 -16 0 -28 2 -28 6 0 4 -8 6 -17 4 -11 -1 -17 -9 -15
-21 3 -14 1 -15 -10 -7 -7 6 -21 9 -31 8 -10 -2 -16 2 -14 8 2 7 11 11 20 9 8
-1 18 1 21 6 3 5 -5 8 -17 7 -12 -1 -28 2 -34 8 -7 5 -13 6 -13 2 0 -4 -7 -2
-15 5 -8 7 -15 9 -15 5 0 -5 -10 0 -22 11 -19 15 -20 16 -9 2 18 -24 6 -23
-30 3 -24 16 -33 18 -44 9 -11 -9 -19 -6 -40 16 -14 15 -26 25 -26 23 -1 -2
-2 -16 -3 -30 -1 -20 2 -25 14 -21 13 5 13 4 0 -14 -14 -18 -14 -18 6 -1 29
24 38 21 17 -7 -10 -13 -21 -22 -24 -20 -3 2 -6 -3 -6 -11 0 -8 4 -12 9 -9 4
3 9 0 9 -5 1 -6 2 -17 3 -23 1 -7 11 -12 23 -12 12 1 24 -5 28 -13 3 -11 1
-13 -10 -9 -26 10 -16 -1 20 -23 30 -18 37 -18 41 -6 4 8 10 12 16 9 5 -3 4
-13 -4 -22 -12 -15 -11 -16 5 -3 15 12 21 9 18 -12 0 -4 3 -7 9 -7 10 0 14 14
11 38 -2 10 2 10 18 0 18 -11 18 -13 3 -25 -14 -11 -14 -13 -2 -11 8 2 23 14
32 28 16 22 16 26 2 37 -9 6 -11 14 -5 17 5 4 12 2 16 -4 4 -6 11 -7 17 -4 7
4 8 2 4 -5 -4 -6 -2 -19 6 -28 11 -15 11 -16 -7 -9 -11 4 -16 4 -12 0 4 -4 0
-12 -9 -18 -13 -10 -7 -12 28 -10 23 1 45 3 48 4 3 1 8 2 13 1 4 0 7 4 7 10 0
5 4 8 9 4 5 -3 12 -1 15 4 4 5 14 8 24 6 9 -1 25 4 35 13 9 8 17 12 17 8 0 -4
14 2 30 14 17 12 38 23 48 24 9 2 17 9 18 17 2 30 5 33 14 19 5 -8 10 -10 10
-4 0 6 -7 17 -15 24 -8 7 -12 16 -9 22 3 5 -2 17 -13 26 -10 9 -19 23 -21 30
-1 7 -14 25 -28 40 -15 15 -23 21 -20 15 4 -7 2 -13 -3 -13 -15 0 -14 27 1 32
7 3 5 7 -6 11 -11 5 -15 3 -10 -5 5 -7 2 -9 -9 -5 -16 6 -41 -15 -30 -26 3 -4
1 -7 -5 -7 -7 0 -12 6 -12 13 1 15 26 49 35 47 4 -1 10 1 13 5 4 4 2 5 -4 3
-6 -2 -25 8 -43 22 -33 24 -66 36 -55 19 3 -5 1 -9 -4 -9 -16 0 -22 13 -12 25
7 8 5 12 -5 12 -8 0 -12 -4 -9 -9 10 -16 -9 -8 -22 10 -13 16 -14 16 -8 -1 5
-13 2 -16 -10 -11 -9 3 -14 9 -12 13 6 8 -31 9 -45 1z m69 -39 c12 -14 13 -14
8 3 -6 17 -5 18 16 3 13 -8 22 -21 20 -29 -1 -7 6 -3 16 10 17 23 18 23 35 4
9 -10 14 -22 10 -27 -5 -4 0 -5 10 -2 15 6 16 4 7 -14 -6 -11 -15 -17 -21 -14
-14 9 -11 -8 5 -31 13 -18 13 -21 0 -21 -14 0 -15 3 -18 30 0 6 -6 12 -13 12
-19 0 -22 9 -7 23 9 8 14 9 14 2 0 -6 5 -8 11 -4 8 5 7 10 -4 16 -10 5 -14 16
-11 26 5 14 4 14 -4 2 -6 -8 -9 -17 -7 -20 1 -3 -3 -10 -10 -17 -10 -9 -15 -6
-24 15 l-12 26 -17 -25 c-20 -28 -49 -36 -49 -14 0 9 6 14 12 11 7 -2 18 1 24
7 14 14 -5 38 -26 30 -12 -5 -12 -7 -1 -15 9 -6 6 -7 -9 -3 -24 6 -42 -12 -20
-21 11 -4 21 -34 11 -34 -12 0 -33 14 -30 19 3 4 0 13 -5 21 -8 13 -10 13 -18
0 -5 -8 -7 -18 -5 -22 3 -4 3 -8 0 -8 -2 0 -12 -3 -21 -6 -17 -7 -18 15 0 29
6 5 4 7 -5 4 -8 -2 -14 -10 -12 -16 3 -13 -8 -14 -28 -1 -13 9 -13 10 0 10 12
0 13 2 1 9 -9 6 -2 8 20 7 19 -2 39 1 45 6 7 5 22 11 35 13 12 3 27 9 33 15 7
7 7 11 1 10 -19 -4 -26 0 -20 10 7 12 43 -5 63 -29z m-13 -10 c3 -5 2 -12 -3
-15 -5 -3 -9 1 -9 9 0 17 3 19 12 6z m37 -38 c1 -10 40 -39 50 -36 4 2 5 -6 3
-17 -4 -20 0 -22 30 -22 30 0 34 2 30 22 -5 28 12 35 25 10 6 -12 18 -19 25
-16 10 3 12 0 8 -11 -4 -10 -2 -14 5 -9 6 3 14 1 19 -6 15 -25 12 -45 -7 -63
-21 -19 -29 -8 -9 12 16 16 -16 61 -44 59 -12 0 -22 -7 -22 -15 0 -8 -6 -16
-14 -19 -8 -3 -11 0 -7 6 3 6 1 14 -5 18 -8 5 -9 3 -4 -7 8 -12 6 -12 -8 0
-16 12 -17 12 -10 -5 6 -17 5 -17 -10 -5 -9 7 -14 17 -11 22 3 5 -1 9 -8 9 -9
0 -9 3 2 10 9 6 10 10 3 10 -6 0 -15 -4 -18 -10 -3 -5 -11 -10 -17 -10 -6 0
-3 10 8 22 19 22 19 22 0 8 -18 -14 -19 -13 -13 2 8 21 -9 33 -27 19 -7 -6
-17 -7 -21 -3 -5 4 -5 2 -1 -5 4 -7 13 -10 21 -6 8 3 15 0 15 -6 0 -6 -3 -11
-7 -12 -5 0 -16 -2 -25 -4 -11 -2 -15 2 -11 11 3 8 0 14 -7 14 -6 0 -8 -4 -5
-10 3 -5 0 -10 -9 -10 -8 0 -16 5 -18 12 -3 7 -7 4 -12 -7 -4 -11 -4 -16 0
-13 3 4 19 1 34 -7 15 -8 31 -11 35 -7 5 4 5 -1 2 -11 -4 -11 -3 -16 3 -12 11
7 26 -22 16 -32 -3 -3 -12 -1 -19 5 -8 7 -17 9 -21 5 -4 -4 -4 1 0 11 5 13 4
17 -3 13 -6 -4 -16 0 -23 8 -7 8 -16 12 -21 9 -5 -3 -9 0 -9 5 0 6 -3 10 -7 9
-5 -1 -18 3 -29 10 -12 6 -25 8 -29 4 -5 -4 -5 -2 -2 4 10 17 -18 25 -34 11
-11 -10 -11 -9 0 5 10 13 18 15 32 8 21 -12 41 -10 52 5 4 7 10 6 15 -1 7 -10
22 -11 66 -1 10 2 23 11 28 21 9 17 19 17 20 -1z m18 -82 c0 6 9 0 21 -14 14
-19 18 -31 11 -43 -8 -15 -11 -14 -25 5 -11 17 -16 19 -21 9 -3 -7 -3 -2 0 11
4 15 2 21 -4 17 -6 -4 -16 4 -23 16 -12 22 -12 22 15 5 16 -11 26 -13 26 -6z
m135 -10 c-3 -2 3 -10 13 -18 16 -12 16 -14 0 -26 -13 -10 -14 -17 -6 -25 8
-8 7 -16 -3 -28 -9 -12 -10 -15 -1 -10 6 4 12 3 12 -2 0 -5 -11 -15 -25 -22
-13 -7 -22 -17 -19 -22 3 -5 12 -1 18 8 7 9 17 14 23 11 5 -3 10 -1 11 6 7 48
10 59 24 73 16 16 43 11 33 -6 -3 -5 -1 -12 5 -15 8 -5 8 -11 0 -20 -7 -8 -8
-20 -4 -26 4 -8 3 -9 -5 -5 -7 5 -27 -4 -46 -19 -19 -14 -35 -23 -35 -19 0 3
-7 0 -17 -7 -9 -8 -24 -15 -35 -15 -10 -1 -20 -2 -23 -3 -3 0 -8 -1 -12 -2 -5
-1 -17 -6 -28 -12 -11 -6 -31 -12 -44 -13 -21 -3 -22 -2 -6 10 12 8 14 15 7
19 -5 4 -8 17 -4 29 4 17 2 20 -11 15 -11 -4 -20 1 -27 12 -7 15 -6 19 5 17 8
-1 17 -5 21 -8 3 -4 13 -4 22 -1 15 4 15 3 2 -6 -8 -6 -10 -11 -4 -11 14 0 14
-30 0 -30 -6 0 -3 -5 7 -11 9 -6 14 -15 11 -21 -4 -7 -2 -8 5 -4 9 6 9 11 0
22 -14 17 2 19 19 2 9 -9 13 -7 18 6 5 14 9 15 15 4 7 -10 9 -11 9 0 0 7 4 11
9 7 6 -3 15 3 20 13 9 17 7 19 -14 16 -14 -1 -25 3 -25 9 0 5 -3 7 -7 4 -3 -4
-12 -2 -20 5 -11 9 -13 8 -11 -2 2 -7 -4 -15 -12 -18 -8 -2 -12 -1 -7 3 4 5
-1 17 -10 28 -17 19 -17 20 2 10 11 -6 26 -8 33 -6 6 3 12 -1 12 -7 0 -9 3
-10 14 -1 10 9 16 8 26 -4 10 -12 16 -13 28 -3 13 11 14 11 7 -1 -5 -10 -4
-12 3 -7 16 10 15 26 -1 26 -8 0 -19 11 -25 25 -6 14 -15 24 -19 23 -9 -3 -13
5 -13 23 0 6 7 8 16 5 17 -7 47 11 40 23 -3 4 4 7 14 7 11 0 17 -2 15 -5z
m-425 -26 c14 -19 14 -19 -2 -6 -10 7 -18 18 -18 24 0 6 1 8 3 6 1 -2 9 -13
17 -24z m68 -33 c-11 -13 -10 -14 8 -4 18 9 24 8 35 -4 10 -12 14 -12 20 -2 6
8 9 9 9 2 0 -7 7 -15 16 -18 15 -6 15 -4 3 11 -12 15 -12 16 1 8 8 -6 18 -10
22 -10 3 0 10 -4 15 -9 5 -5 3 -6 -4 -2 -17 10 -16 0 3 -28 9 -15 11 -26 5
-30 -6 -4 -8 -13 -5 -21 4 -8 10 -12 15 -9 5 3 6 -2 2 -11 -5 -13 -7 -14 -14
-3 -5 7 -9 9 -9 4 0 -5 -6 -3 -14 3 -17 14 -31 -2 -20 -21 4 -7 -3 -2 -16 11
-20 21 -25 22 -34 8 -10 -12 -15 -13 -29 -2 -16 11 -16 13 -2 19 9 3 13 2 10
-4 -3 -6 -1 -10 5 -10 6 0 9 8 6 18 -8 23 20 26 29 3 6 -14 8 -13 21 3 8 11
14 15 14 9 0 -6 6 -13 14 -16 9 -4 13 0 11 11 -1 9 -8 16 -15 14 -6 -1 -10 3
-7 10 2 7 11 12 18 10 8 -2 10 0 6 4 -7 8 -29 14 -54 16 -7 1 -13 5 -13 10 0
4 -6 7 -12 6 -7 -2 -12 3 -10 10 1 8 -2 11 -9 7 -8 -5 -8 -10 0 -18 6 -6 11
-17 11 -24 0 -6 -12 0 -27 15 -15 15 -26 32 -25 37 2 6 0 6 -4 2 -14 -14 -13
-38 2 -44 8 -3 11 -9 8 -15 -3 -5 -13 -4 -22 4 -14 10 -15 10 -4 -2 16 -19 15
-27 -3 -27 -8 0 -13 2 -10 5 2 3 0 14 -6 25 -9 15 -8 18 2 12 9 -6 11 -3 6 8
-4 11 3 23 20 36 28 23 51 18 31 -7z m12 -51 c10 -20 4 -51 -10 -51 -12 0 -19
39 -9 46 5 3 7 10 4 15 -4 5 -4 9 -1 9 3 0 10 -9 16 -19z m56 -11 c-3 14 -3
19 0 12 3 -6 10 -10 15 -6 5 3 4 -6 -3 -21 -10 -22 -13 -23 -20 -10 -5 8 -13
13 -19 10 -11 -7 -11 -3 -2 20 5 15 8 14 20 -6 l14 -24 -5 25z m219 -30 c6 -1
12 -3 14 -6 2 -2 -6 -1 -18 1 -13 2 -24 -2 -27 -10 -5 -11 -10 -12 -24 -3 -17
11 -17 13 -2 24 10 7 23 9 32 4 8 -4 20 -9 25 -10z"/>
<path d="M862 313 c5 -7 14 -10 19 -7 16 10 9 23 -10 21 -15 -1 -17 -4 -9 -14z"/>
<path d="M1030 239 c0 -5 5 -7 10 -4 6 3 10 8 10 11 0 2 -4 4 -10 4 -5 0 -10
-5 -10 -11z"/>
<path d="M1144 240 c0 -10 6 -16 13 -13 7 3 13 9 13 13 0 4 -6 10 -13 13 -7 3
-13 -3 -13 -13z"/>
<path d="M1115 240 c-4 -6 -13 -9 -21 -6 -7 3 -16 1 -19 -5 -4 -5 -3 -8 2 -7
4 1 19 -2 32 -6 16 -6 20 -11 11 -16 -8 -5 -5 -9 9 -13 31 -8 36 11 6 25 -18
8 -22 14 -13 19 7 4 10 11 6 14 -3 4 -9 1 -13 -5z"/>
<path d="M1201 206 c-8 -10 -9 -16 -1 -21 7 -4 6 -13 -2 -28 -10 -20 -9 -20
15 3 21 20 23 26 11 33 -8 5 -12 12 -9 18 9 14 -1 11 -14 -5z"/>
<path d="M1150 119 c0 -5 5 -7 10 -4 6 3 10 8 10 11 0 2 -4 4 -10 4 -5 0 -10
-5 -10 -11z"/>
<path d="M1110 99 c0 -5 5 -7 10 -4 6 3 10 8 10 11 0 2 -4 4 -10 4 -5 0 -10
-5 -10 -11z"/>
<path d="M795 140 c3 -5 8 -10 11 -10 2 0 4 5 4 10 0 6 -5 10 -11 10 -5 0 -7
-4 -4 -10z"/>
<path d="M399 363 c-8 -9 -15 -10 -24 -3 -15 12 -26 3 -18 -16 3 -9 -2 -12
-16 -9 -21 4 -51 -18 -51 -36 0 -6 -4 -8 -9 -4 -6 3 -8 -3 -6 -15 2 -11 0 -22
-6 -25 -5 -4 -9 -1 -9 6 0 7 -3 9 -6 6 -4 -4 -1 -14 7 -24 12 -15 12 -16 -4
-10 -11 4 -16 3 -12 -3 3 -6 1 -10 -5 -10 -6 0 -2 -10 10 -22 22 -24 28 -47 7
-29 -8 6 -18 7 -22 3 -5 -4 -5 2 -1 12 6 16 4 17 -9 6 -12 -10 -13 -15 -4 -20
8 -6 8 -9 -2 -13 -10 -4 -9 -6 3 -6 9 -1 20 -6 24 -12 4 -8 0 -9 -15 -4 -23 7
-23 7 -25 -44 -2 -19 3 -35 11 -38 7 -3 10 -10 6 -17 -3 -6 -1 -6 8 1 17 17
35 17 21 1 -8 -10 -4 -13 16 -14 15 -1 21 1 15 3 -18 6 -16 20 2 20 13 0 18
-9 17 -27 0 -3 14 -6 31 -7 23 -2 28 0 19 9 -7 7 -12 17 -12 23 1 5 10 -1 21
-14 11 -13 22 -21 26 -18 3 4 12 2 20 -5 11 -8 12 -7 7 5 -6 16 10 18 32 4 16
-10 26 4 13 20 -14 16 -5 17 22 3 13 -8 25 -7 42 2 12 7 26 12 30 13 5 0 15 8
22 18 7 10 15 14 17 10 3 -4 3 -2 1 6 -2 8 2 11 11 8 10 -4 14 0 11 14 -3 15
0 19 11 15 8 -3 13 -2 9 3 -3 5 1 12 7 14 10 4 10 6 1 6 -7 1 -13 6 -13 12 0
5 5 7 10 4 6 -3 10 -1 10 5 0 6 -7 10 -16 8 -10 -2 -19 2 -21 9 -3 8 3 11 17
8 11 -2 18 0 15 6 -4 5 -1 9 4 9 6 0 11 5 11 11 0 8 -5 8 -15 -1 -18 -15 -20
0 -2 20 10 12 9 12 -5 2 -9 -8 -19 -9 -22 -4 -3 6 1 12 9 16 8 3 12 12 9 20
-5 12 -8 12 -25 -2 -12 -10 -15 -20 -9 -26 6 -6 3 -14 -8 -22 -23 -18 -37 -17
-22 1 7 9 10 18 6 22 -3 3 -6 1 -6 -6 0 -7 -5 -9 -10 -6 -6 4 -9 1 -8 -7 2 -7
-3 -12 -11 -10 -11 2 -12 0 -2 -11 9 -12 8 -16 -5 -21 -22 -9 -26 -8 -18 6 4
7 3 8 -5 4 -6 -4 -8 -12 -5 -18 5 -7 1 -9 -9 -5 -11 4 -14 2 -10 -9 3 -7 10
-14 16 -14 6 0 7 -3 4 -7 -4 -3 -16 2 -26 11 -19 17 -20 17 -31 -3 -6 -12 -15
-19 -20 -16 -5 3 -11 1 -15 -5 -4 -6 -11 -8 -16 -5 -5 4 -9 2 -9 -4 0 -5 5
-11 12 -13 7 -3 6 -7 -5 -11 -9 -3 -17 -2 -17 3 0 6 -5 10 -11 10 -5 0 -8 -4
-5 -9 3 -5 -2 -15 -11 -22 -15 -12 -16 -12 -10 3 3 10 2 18 -3 18 -6 0 -10 -9
-10 -21 0 -20 0 -20 -28 3 -16 13 -26 25 -22 28 4 3 6 13 4 23 -1 9 1 17 5 17
15 0 20 -13 11 -30 -7 -13 -6 -20 4 -23 10 -4 12 1 9 16 -4 18 -3 19 6 7 7
-10 11 -11 11 -2 0 6 5 12 11 12 5 0 7 -6 3 -12 -4 -7 7 0 24 15 16 16 33 29
36 28 3 -1 7 2 8 7 1 4 9 15 17 24 11 13 17 15 23 5 6 -9 8 -9 8 0 0 7 -8 17
-17 22 -14 8 -15 10 -3 11 13 0 13 1 0 11 -12 8 -11 10 5 7 11 -2 20 -8 20
-15 0 -6 4 -15 9 -20 5 -4 6 -3 3 3 -4 7 0 14 8 17 8 4 12 15 10 26 -2 11 0
23 6 26 5 4 9 0 9 -7 0 -7 15 2 32 21 28 32 29 35 13 47 -9 7 -26 11 -37 9
-14 -3 -18 0 -14 10 3 8 1 15 -4 15 -6 0 -10 -8 -10 -17 0 -15 -2 -16 -10 -3
-12 19 -66 21 -81 3z m51 -1 c-1 -11 -29 -58 -30 -49 0 5 4 16 9 26 7 13 6 18
-4 18 -8 0 -12 -4 -10 -8 3 -4 2 -15 -1 -24 -7 -16 -8 -16 -16 -1 -6 11 -6 22
1 29 11 14 51 20 51 9z m30 -24 c0 -14 -53 -56 -69 -53 -9 1 -20 -3 -24 -9 -5
-6 -6 -3 -3 9 5 17 4 18 -7 5 -20 -25 -34 -21 -34 11 0 23 2 27 9 15 10 -18
28 -13 28 7 0 8 -3 7 -9 -2 -7 -10 -9 -7 -8 12 1 15 3 27 5 27 2 0 10 -17 18
-37 11 -24 18 -32 23 -24 5 7 11 12 15 12 17 -3 26 0 24 7 -1 4 2 18 6 31 6
18 10 21 17 10 5 -8 9 -17 9 -21z m24 -4 c3 -8 2 -13 -3 -10 -5 3 -11 0 -14
-7 -3 -7 5 -13 21 -14 14 0 21 2 16 5 -15 12 -15 39 1 39 8 0 15 -4 15 -9 0
-5 6 -6 13 -2 7 5 5 -2 -4 -16 -9 -14 -23 -25 -30 -26 -8 0 -22 -4 -32 -9 -15
-6 -16 -10 -5 -16 10 -7 10 -9 -2 -9 -13 0 -13 -1 0 -11 13 -9 13 -10 0 -6 -8
2 -14 10 -12 16 3 14 -4 14 -28 1 -13 -7 -17 -18 -14 -34 2 -13 -2 -29 -11
-36 -8 -7 -12 -17 -8 -24 3 -6 2 -8 -2 -3 -5 4 -17 -1 -27 -10 -26 -23 -57
-23 -73 -1 -10 15 -15 17 -21 6 -5 -7 -9 -17 -10 -23 -1 -5 -3 -14 -4 -20 -5
-20 0 -36 9 -31 4 3 16 -3 26 -14 10 -11 21 -18 24 -15 4 2 7 -5 7 -15 0 -24
-22 -14 -30 13 -3 13 -9 18 -13 12 -11 -13 -36 -18 -28 -5 3 5 1 10 -5 10 -6
0 -9 4 -6 9 3 4 -4 17 -17 27 l-22 19 20 -24 20 -24 -20 6 c-19 7 -19 6 -2 -7
12 -9 14 -16 8 -21 -6 -3 -11 -1 -11 5 0 6 -4 9 -8 6 -5 -3 -8 9 -8 27 1 24 5
31 18 29 19 -3 33 14 18 23 -5 3 -10 12 -10 18 0 7 4 6 10 -3 9 -13 13 -12 30
9 11 12 17 27 14 32 -3 5 0 9 5 9 6 0 11 -6 11 -12 0 -9 4 -8 11 2 8 12 9 11
6 -5 -2 -11 -8 -19 -15 -18 -6 2 -9 -4 -5 -13 5 -13 7 -13 14 -2 7 10 9 10 9
-2 0 -13 1 -13 10 0 9 14 14 7 11 -13 -1 -5 4 -5 10 -2 8 5 8 10 0 18 -16 16
-13 31 4 17 8 -6 19 -9 26 -5 8 6 8 10 -2 15 -21 14 -20 42 1 35 10 -3 21 -1
25 4 4 7 -1 8 -12 5 -16 -6 -16 -5 1 8 16 13 16 15 2 15 -9 0 -16 -4 -16 -9 0
-5 -4 -6 -10 -3 -5 3 -10 0 -11 -7 0 -10 -2 -10 -6 0 -2 6 -9 10 -14 7 -5 -4
-6 0 -3 8 3 9 16 13 35 12 16 -1 29 2 29 7 0 5 4 7 9 4 5 -3 14 1 21 9 7 8 16
13 20 10 4 -3 13 9 20 25 14 35 16 35 24 14z m-170 -66 c-3 -20 2 -31 17 -39
11 -6 18 -13 15 -16 -3 -4 0 -13 7 -22 11 -14 10 -14 -5 -2 -10 7 -18 10 -18
5 0 -5 -5 -2 -10 7 -11 19 -55 20 -55 2 0 -7 -4 -12 -10 -10 -5 1 -9 5 -7 10
1 4 -3 7 -10 7 -6 0 -3 7 8 15 10 8 15 15 10 15 -5 0 -3 7 4 15 7 8 9 15 6 15
-4 0 3 14 15 32 20 28 23 29 29 12 4 -10 5 -31 4 -46z m290 -54 c3 -8 2 -13
-3 -10 -5 3 -14 0 -20 -8 -9 -10 -8 -15 4 -20 9 -3 13 -10 10 -16 -3 -5 -1
-10 6 -10 7 0 4 -7 -7 -15 -10 -8 -16 -15 -12 -15 7 0 -43 -54 -52 -55 -3 0
-15 -6 -27 -13 -18 -10 -28 -9 -57 5 -20 10 -36 21 -36 26 0 10 18 9 25 -3 3
-5 13 -7 23 -4 15 5 15 4 2 -6 -12 -9 -11 -10 9 -5 16 5 21 4 17 -4 -5 -7 -1
-8 9 -4 13 5 14 7 3 14 -10 7 -10 9 2 10 8 1 19 1 23 0 5 -1 6 3 2 8 -3 6 -13
7 -23 4 -14 -6 -15 -4 -4 9 7 9 24 15 37 13 14 -1 22 1 20 6 -3 4 4 11 16 14
17 6 19 9 8 16 -12 7 -12 9 0 9 8 0 11 3 8 6 -4 4 -14 1 -24 -7 -15 -12 -16
-12 -10 3 3 10 1 20 -5 24 -6 4 -8 3 -5 -3 4 -6 0 -16 -8 -23 -12 -10 -15 -10
-15 1 0 11 -2 11 -10 -1 -5 -8 -12 -11 -17 -7 -10 11 17 27 33 20 9 -3 12 2 9
18 -4 17 -2 20 7 11 16 -16 29 -15 26 1 -2 6 3 11 10 10 6 -2 12 2 12 7 0 15
7 12 14 -6z m-105 -74 c16 8 21 8 21 -2 0 -9 3 -9 10 2 5 8 12 11 16 7 9 -9 1
-18 -19 -21 -8 -1 -22 -8 -31 -15 -17 -14 -40 -6 -30 11 5 7 2 8 -6 3 -9 -6
-11 -4 -5 5 5 9 4 11 -4 6 -6 -4 -9 -12 -6 -17 4 -5 1 -9 -5 -9 -6 0 -8 -5 -4
-11 4 -7 9 -8 13 -1 4 7 13 6 25 -3 17 -13 17 -14 -6 -11 -13 1 -29 6 -36 10
-6 4 -19 3 -28 -2 -14 -8 -14 -11 7 -26 13 -9 20 -16 15 -16 -5 0 -2 -8 5 -18
13 -16 13 -16 -5 -2 -11 8 -20 15 -20 14 -1 0 -11 -6 -22 -12 -18 -9 -25 -8
-40 9 -14 15 -15 22 -5 32 6 6 16 13 21 13 6 1 14 2 20 3 17 2 69 59 62 67 -4
5 3 1 15 -9 17 -15 25 -16 42 -7z m-89 -20 c0 -5 -5 -10 -11 -10 -5 0 -7 5 -4
10 3 6 8 10 11 10 2 0 4 -4 4 -10z"/>
<path d="M396 198 c3 -5 10 -6 15 -3 13 9 11 12 -6 12 -8 0 -12 -4 -9 -9z"/>
<path d="M309 301 c-1 -6 -2 -17 -3 -23 -1 -7 -8 -19 -16 -26 -13 -10 -13 -11
3 -6 11 4 17 2 15 -6 -2 -7 5 -14 15 -15 18 -3 18 -3 1 16 -13 15 -14 19 -3
19 11 0 11 2 -1 10 -12 8 -13 11 -1 19 9 6 10 11 2 15 -6 4 -12 2 -12 -3z"/>
<path d="M550 100 c0 -5 5 -10 10 -10 6 0 10 5 10 10 0 6 -4 10 -10 10 -5 0
-10 -4 -10 -10z"/>
<path d="M386 64 c-3 -8 -10 -12 -16 -9 -15 9 -12 -1 4 -14 11 -9 18 -8 30 4
9 9 14 21 11 26 -9 14 -22 11 -29 -7z m24 2 c0 -2 -8 -10 -17 -17 -16 -13 -17
-12 -4 4 13 16 21 21 21 13z"/>
<path d="M744 268 c3 -15 26 -23 26 -8 0 6 -4 9 -9 6 -5 -4 -12 -1 -14 4 -3 6
-4 5 -3 -2z"/>
</g>
</svg>
